<svg width="256" height="256" viewBox="0 0 256 256" xmlns="http://www.w3.org/2000/svg">
  <!-- Background -->
  <rect x="16" y="16" width="224" height="224" rx="48" fill="#1E1E2E"></rect>

  <!-- Grid (CPU abstraction) -->
  <g fill="#A6E3A1">
    <rect x="64" y="64" width="32" height="32" rx="6"></rect>
    <rect x="112" y="64" width="32" height="32" rx="6"></rect>
    <rect x="160" y="64" width="32" height="32" rx="6"></rect>
    
    <rect x="64" y="112" width="32" height="32" rx="6"></rect>
    <rect x="112" y="112" width="32" height="32" rx="6"></rect>
    <rect x="160" y="112" width="32" height="32" rx="6"></rect>
    
    <rect x="64" y="160" width="32" height="32" rx="6"></rect>
    <rect x="112" y="160" width="32" height="32" rx="6"></rect>
    <rect x="160" y="160" width="32" height="32" rx="6"></rect>
  </g>

  <!-- Activity Bars -->
  <g fill="#89B4FA">
    <rect x="200" y="80" width="12" height="40" rx="4"></rect>
    <rect x="200" y="120" width="12" height="60" rx="4"></rect>
    <rect x="200" y="180" width="12" height="24" rx="4"></rect>
  </g>
</svg>
